<?xml version="1.0" encoding="utf-8"?>
<!-- Generator: Adobe Illustrator 18.1.0, SVG Export Plug-In . SVG Version: 6.00 Build 0)  -->
<svg version="1.1" id="Layer_1" xmlns="http://www.w3.org/2000/svg" xmlns:xlink="http://www.w3.org/1999/xlink" x="0px" y="0px"
	 viewBox="0 0 105 45" enable-background="new 0 0 105 45" xml:space="preserve">
<!--<rect fill="#EE2528" width="105" height="45"/>-->
<g>
	<path fill="#FFFFFF" d="M43.7,18.1c0.2-3.2-1.7-5.1-3.8-4.9c-2.1,0.2-2.8,1.5-3.3,3c-0.1,0.4-1.3,0.3-2.4,0.1
		c-1-0.2-1.8-0.6-1.6-1.1c3.5-9,14.4-4.9,13.3,3.3c-0.4,2.8-3,7.9-6.4,12c2.6-0.1,4.8-1,6.3-2.7c0.4-0.5,0.8-0.6,1.1-0.5
		c0.3,0.1,0.1,0.5,0,0.8c-2.3,4.1-8.7,6.8-14.9,6.5c-0.3,0-0.6-0.1-0.6-0.6c0-0.4,0.7-0.8,1.3-1.3C39.4,28.3,43.5,21.8,43.7,18.1z"
		/>
	<g>
		<path fill="#FFFFFF" d="M91,33.2c-3.6-6.8-1.6-15.9-1.3-18.7c0.2-1.4-3-2.8-3.2-2.8c-0.2,0-0.3,0.1-0.3,0.4
			c-0.1,0.3,0.4,6.3,0.1,7.8c-4.9-0.1-9.1,3.8-10.6,7.8c-0.2,0.4-0.4,1.5-1.5,2.4c-1.3,1.2-3.5,2.2-5.9,1.7
			c-1.1-0.2-1.4-1.2-1.5-1.8c5.7-1.3,9.7-3.7,9.2-7.4c-0.3-2.1-2.7-3.6-6.3-2.1c-2.9,1.2-5.7,4.9-6.2,7.4c-2.2,0.4-5.2-0.4-9.5-1.8
			c6.9-0.9,14.3-5.3,14.3-8.5c0-4.7-7.7-5-14.4-3.5c-2.8,0.7-4.3,1.5-5.1,2c-0.4,0.2-1.2,1.7-0.6,1.8c0.7,0.1,4.3-1.4,5.7-1.8
			c-1,0.9-1.6,2.2-1.9,3.2c-0.3,1.1-0.6,3.8-0.6,4.6c-0.7,0.1-1.6,0.2-1.7,0.3c-0.4,0.5-0.8,1.6-0.5,1.8c0.7,0.4,1.3,0.7,1.6,0.9
			c0,0.5-1.4,7-1.1,7.2c0.5,0,1.9-0.4,2.7-1.5c0.8-1.1,0.8-3.8,1-4.8c3.2,1.7,6.3,2.6,10.2,2.5c0.4,2.1,2,3,3.3,3.3
			c3.3,0.8,6.9-0.5,8.5-1.9c0.4,1.1,1.4,2.2,3.6,2.2c4.1,0,6.5-2.7,7.4-5.9c0.1,2.7,1.6,5,4,5.7C90.9,33.9,91.3,33.6,91,33.2z
			 M73.4,23c0.4,0.8-0.5,3-6.3,4.4C68.2,22.5,72.6,21,73.4,23z M54.2,16c5.4-1.1,9.9-0.7,9.6,2.3c-0.1,1.7-5.2,4.9-10,5.4
			C53.8,22.6,54.2,17.1,54.2,16z M79.1,31.1c-1-0.1-1.4-1.8,0.1-4.4c1.9-3.4,4.7-5.1,7-5.2C85.6,26.4,83.3,31.4,79.1,31.1z"/>
	</g>
	<path fill="#FFFFFF" d="M33.1,38.6c-8.9,0-16.1-7.2-16.1-16.1S24.2,6.4,33.1,6.4c6.1,0,11.4,3.4,14.1,8.4c0.1,0.2,0.4,0.5,0.8,0.5
		c0.5-0.1,0.5-0.6,0.3-1c-3-5.9-9.2-10-16.3-10c-10.1,0-18.2,8.2-18.2,18.2S21.9,40.7,32,40.7c8.3,0,15.4-5.6,17.5-13.3
		c0,0,0.2-0.7-0.4-0.6c-0.5,0-0.7,0.6-0.7,0.6C46.3,33.9,40.2,38.6,33.1,38.6z"/>
	<path fill="#FFFFFF" d="M28.4,34.6c-5,0.4-7.4-3.1-8.8-6.4c-0.2-0.4,0.8-0.8,1.3,0.2C24,34.4,30.7,33,31,28.6c0.3-4-4-5.6-9.5-5.6
		c-0.1,0-0.2,0-0.2-0.2c0-0.2,0.4-1.8,0.8-2.3c0.1-0.1,0.1-0.2,0.3-0.2c4.4-0.6,6.8-2.1,6.5-5.2c-0.3-2.7-4.6-3.4-7-0.2
		c-0.4,0.6-1.5,0.6-1.2,0.1c1.5-3,3.7-4.8,6.7-4.9c2.7-0.2,4.9,2.2,5,4.5c0,2.3-1.2,4.8-3.9,6.1c4.5,0.8,6.9,4.6,5.9,8.3
		C33.4,32.6,30.6,34.5,28.4,34.6z"/>
</g>
</svg>
